<?xml version="1.0" encoding="utf-8"?>
<!-- Generator: Adobe Illustrator 26.2.1, SVG Export Plug-In . SVG Version: 6.00 Build 0)  -->
<svg version="1.1" id="Layer_1" xmlns="http://www.w3.org/2000/svg" xmlns:xlink="http://www.w3.org/1999/xlink" x="0px" y="0px"
	 viewBox="0 0 189.8 157.7" style="enable-background:new 0 0 189.8 157.7;" xml:space="preserve">
<style type="text/css">
	.st0{fill:#FFFFFF;}
</style>
<path class="st0" d="M112,61.7c0.8-0.1,1.7-0.2,2.5-0.2c3.8,0,7.5,1.7,9.9,4.7c2.5,3,3.5,6.9,2.7,10.7c-1,5.1-5,9.1-10.1,10.1
	c-0.8,0.1-1.7,0.2-2.5,0.2c-7.1-0.1-12.8-6-12.7-13.1C101.9,68.1,106.1,62.9,112,61.7 M106.2,8.6L69.3,45.8l-8.7,8.6
	c-4.4,4.1-11.2,3.9-15.4-0.3l-4.7-4.4L28.6,62.6l3.9,4.2c11.1,11.1,29,11.4,40.5,0.6l45.8-45.9C123,17,130,16.8,134.5,21
	c0.1,0.1,34.4,33.3,34.4,33.3c4.2,4.4,4.1,11.3-0.2,15.6l-66,66c-1.9,2-5.1,3.6-8.2,3.8c-3.4,0-5.7-0.8-8.1-3.2L21.2,72.6
	c-4.3-4.3-4.3-11.4,0-15.7l33.9-34.2c4.2-4,10.7-4.2,15.1-0.4l4.9,4l12.7-12.5l-4.9-4.1C71.4-1.2,53.5-0.9,42.3,10.2L8.4,44.3
	C-2.9,55.7-2.8,74,8.5,85.4l65.2,63.8c5.4,5.4,12.8,8.5,20.5,8.5c8.2,0,17.5-5.4,22.6-10.5l64.5-64.6c7.6-7.7,10.4-18.9,7.2-29.3
	c-1.4-4.5-3.9-8.6-7.2-11.8L147.1,8.3C135.7-2.8,117.5-2.7,106.2,8.6"/>
</svg>
