<?xml version="1.0" encoding="utf-8"?>
<!-- Generator: Adobe Illustrator 26.1.0, SVG Export Plug-In . SVG Version: 6.00 Build 0)  -->
<svg version="1.1" id="Layer_1" xmlns="http://www.w3.org/2000/svg" xmlns:xlink="http://www.w3.org/1999/xlink" x="0px" y="0px"
	 viewBox="0 0 191.7 159.5" style="enable-background:new 0 0 191.7 159.5;" xml:space="preserve">
<style type="text/css">
	.st0{fill:url(#SVGID_1_);}
</style>
<linearGradient id="SVGID_1_" gradientUnits="userSpaceOnUse" x1="0.9412" y1="84.6289" x2="190.7701" y2="84.6289" gradientTransform="matrix(1 0 0 -1 0 164.2072)">
	<stop  offset="0.1011" style="stop-color:#00B6FF"/>
	<stop  offset="0.901" style="stop-color:#00EACB"/>
</linearGradient>
<path class="st0" d="M113,62.4c0.8-0.1,1.7-0.2,2.5-0.2c3.8,0,7.5,1.7,9.9,4.7c2.5,3,3.5,6.9,2.7,10.7c-1,5.1-5,9.1-10.1,10.1
	c-0.8,0.1-1.7,0.2-2.5,0.2c-7.1-0.1-12.8-6-12.7-13.1C102.9,68.8,107.1,63.6,113,62.4 M107.2,9.3L70.3,46.5l-8.7,8.6
	c-4.4,4.1-11.2,3.9-15.4-0.3l-4.7-4.4L29.6,63.3l3.9,4.2c11.1,11.1,29,11.4,40.5,0.6l45.8-45.9c4.2-4.5,11.2-4.7,15.7-0.5
	c0.1,0.1,34.4,33.3,34.4,33.3c4.2,4.4,4.1,11.3-0.2,15.6l-66,66c-1.9,2-5.1,3.6-8.2,3.8c-3.4,0-5.7-0.8-8.1-3.2L22.2,73.3
	c-4.3-4.3-4.3-11.4,0-15.7l33.9-34.2c4.2-4,10.7-4.2,15.1-0.4l4.9,4l12.7-12.5l-4.9-4.1C72.4-0.5,54.5-0.2,43.3,10.9L9.4,45
	C-1.9,56.4-1.8,74.7,9.5,86.1l65.2,63.8c5.4,5.4,12.8,8.5,20.5,8.5c8.2,0,17.5-5.4,22.6-10.5l64.5-64.6c7.6-7.7,10.4-18.9,7.2-29.3
	c-1.4-4.5-3.9-8.6-7.2-11.8L148.1,9C136.7-2.1,118.5-2,107.2,9.3"/>
</svg>
