<?xml version="1.0" encoding="UTF-8"?>
<svg id="Layer_1" data-name="Layer 1" xmlns="http://www.w3.org/2000/svg" version="1.1" viewBox="0 0 1700.8 1133.9">
  <defs>
    <style>
      .cls-1 {
        fill: #c5282d;
      }

      .cls-1, .cls-2 {
        stroke-width: 0px;
      }

      .cls-2 {
        fill: #fff;
      }
    </style>
  </defs>
  <rect class="cls-1" x="-2.5" y="1" width="1704.8" height="1135.7"/>
  <g>
    <g>
      <path class="cls-2" d="M1391.4,453.6c-1.1,0-2.3.4-3.2,1.2l-7.3,6.1,4.8,6.1c.6.8,1.6,1.2,2.7,1.2h22c1.1,0,2.3-.4,3.2-1.2l7.3-6.1-4.8-6.1c-.6-.8-1.6-1.2-2.7-1.2h-22Z"/>
      <path class="cls-2" d="M1416.9,451.4l6.1,7.8,1.6-1.3c1.9-1.6,3.3-3.7,3.7-6l6.6-31.1c.9-4.2-.7-7.9-3.8-9.7l-10.8,18.4-4,19c-.2,1.1,0,2.2.6,3Z"/>
      <path class="cls-2" d="M1423.4,419.8l5.7-9.7c-.9-.3-1.8-.4-2.8-.4h-29.1c-3.1,0-6.1,1.2-8.5,3.3l6.6,8.3c.6.8,1.6,1.2,2.7,1.2h20.9c1.8,0,3.5-1.1,4.5-2.7Z"/>
      <path class="cls-2" d="M1385.5,473.3l-4.4,20.7c-.2,1.1-.9,2.2-1.9,3l-12,9.8c-.7-1.7-.9-3.7-.4-5.8l6.6-31.1c.5-2.2,1.8-4.4,3.7-6l1.6-1.3,6.1,7.8c.6.8.8,1.9.6,3Z"/>
      <path class="cls-2" d="M1405.9,501.9l1.6,9.7c-1,.3-2,.4-3,.4h-29.1c-3.1,0-5.6-1.2-7.1-3.3l10.1-8.3c1-.8,2.1-1.2,3.2-1.2h20.9c1.8,0,3.1,1.1,3.4,2.7Z"/>
      <polygon class="cls-2" points="1426.9 458.8 1426.9 458.8 1426.9 458.8 1426.9 458.8"/>
      <polygon class="cls-2" points="1426 462.9 1426 462.9 1426 462.9 1426 462.9"/>
      <path class="cls-2" d="M1450.8,453.6c-1.1,0-2.3.4-3.2,1.2l-7.3,6.1,4.8,6.1c.6.8,1.6,1.2,2.7,1.2h22c1.1,0,2.3-.4,3.2-1.2l7.3-6.1-4.8-6.1c-.6-.8-1.6-1.2-2.7-1.2h-22Z"/>
      <path class="cls-2" d="M1450.2,448.4l4.4-20.7c.2-1.1,0-2.2-.6-3l-7.8-9.8c-1.4,1.7-2.5,3.7-2.9,5.8l-6.6,31.1c-.5,2.2,0,4.4,1.2,6l1,1.3,9.4-7.8c1-.8,1.6-1.9,1.9-3Z"/>
      <path class="cls-2" d="M1476.3,451.4l6.1,7.8,1.6-1.3c1.9-1.6,3.3-3.7,3.7-6l6.6-31.1c.9-4.2-.7-7.9-3.8-9.7l-10.8,18.4-4,19c-.2,1.1,0,2.2.6,3Z"/>
      <path class="cls-2" d="M1472.3,470.4l9.4-7.8,1,1.3c1.2,1.6,1.7,3.7,1.2,6l-6.6,31.1c-.9,4.2-4,7.9-7.9,9.7l-3-18.4,4-19c.2-1.1.9-2.2,1.9-3Z"/>
      <polygon class="cls-2" points="1489.4 458.8 1489.4 458.8 1489.4 458.8 1489.4 458.8"/>
      <polygon class="cls-2" points="1485.4 462.9 1485.4 462.9 1485.4 462.9 1485.4 462.9"/>
    </g>
    <path class="cls-2" d="M865.5,573.2c.4-2.6,2.5-4.6,4.7-4.5,2.5.1,4.6,2,4.7,4.5-.5,135-110,243.5-244.9,243.5s-174.4-52.2-215.8-128.9l-207.9-360.9h421.3c4.8,0,6.7,0,11.4,0,2.8,0,5.1,2.3,5.1,5.1s-1.5,4.5-4.5,5.1c-99.6,12.4-174.7,97.2-174.7,200.2s90.4,202,202,202,181.9-71.4,198.8-165.9"/>
    <path class="cls-2" d="M730.5,441.6l-12.7,68.9h-34l35.3-187.3c17.8-1.9,31.4-2.8,40.8-2.8,49.6,0,74.4,18.6,74.4,55.9s-7.5,37.5-22.6,49.5c-15.1,12-34.6,18-58.6,18s-15.2-.7-22.7-2.2ZM746.9,351.4l-11.1,61.8c4.4,1.2,9.9,1.8,16.6,1.8,14.5,0,26-3.1,34.6-9.3,8.5-6.2,12.8-15.2,12.8-26.9,0-19.7-11.2-29.6-33.5-29.6s-12.4.7-19.3,2.2Z"/>
    <path class="cls-2" d="M946,461.4c-.6,3.2-.9,6.7-.9,10.5,0,18.8,1.5,31.7,4.4,38.7h-20c-6,0-10.4-4.6-13.3-13.7-10.9,10.8-24.5,16.3-40.8,16.3s-26.4-4.2-34.5-12.5c-8.1-8.4-12.2-20-12.2-34.9,0-26,7.9-48.3,23.6-66.9,15.7-18.6,35.6-27.8,59.6-27.8s39.8,2.1,50,6.4l-15.9,84.1ZM909,397c-14.3,0-25.8,6.8-34.3,20.5-8.5,13.7-12.8,29.5-12.8,47.3s7.2,22.1,21.8,22.1,17.3-5.7,24.1-17c6.9-11.3,13-34.8,18.4-70.4-6.1-1.7-11.8-2.6-17.2-2.6Z"/>
    <path class="cls-2" d="M1061.6,510.5l-43.4-56.4-5.4,4.5-9.1,52h-32.1l33.5-193.3h31.5l-16.5,101.8,24.2-21c16.5-14.3,27.4-25.3,32.8-32.8l22.4,19.3c-3.8,4.6-22.6,21.9-56.6,51.8l56.6,74.1h-37.9Z"/>
    <path class="cls-2" d="M1138.2,451c-.2,2.2-.3,4.1-.3,5.8,0,9.6,2.8,16.9,8.5,22,5.7,5.1,13.5,7.7,23.6,7.7s11.6-1.5,18.6-4.4c7-2.9,12.5-6.3,16.5-9.9l-3.7,33.7c-10.8,4.9-24.1,7.3-39.7,7.3s-30.6-5.3-41.1-16c-10.5-10.7-15.7-25.3-15.7-43.9s7.6-43.2,22.7-58.8c15.1-15.7,35-23.5,59.5-23.5s26.1,3.1,35.1,9.2c9,6.1,13.4,14.8,13.4,26.2s-6.7,27.6-20,36.4c-13.4,8.8-29.8,13.2-49.3,13.2s-18.9-1.6-28-4.7ZM1144.4,426.8c5.5,1.6,11.6,2.4,18,2.4,11.6,0,21.4-1.8,29.4-5.3,8-3.5,12-8.6,12-15.3s-8.1-11.1-24.3-11.1-12.9,2.8-19.6,8.4c-6.7,5.6-11.9,12.6-15.6,20.9Z"/>
    <path class="cls-2" d="M1413,399.2h-115.2l-13.8,60.8c-1.1,4.9-1.7,8.9-1.7,12.2,0,9.4,5.3,14.1,15.9,14.1s12.4-2.2,23-6.7v28.8c-9.2,3.2-21.8,4.7-37.6,4.7s-18.8-3.2-25.1-9.7c-6.3-6.5-9.5-14.9-9.5-25.3s.4-6.8,1.2-10.1l15.5-68.7h-15.9l5.5-25.7h15.9l5.4-28,36.6-13.3-9.6,41.3h114.9l-5.5,25.7Z"/>
  </g>
</svg>