<svg width="100" height="79" viewBox="0 0 100 79" fill="none" xmlns="http://www.w3.org/2000/svg">
<path fill-rule="evenodd" clip-rule="evenodd" d="M63.3498 0.164304L99.0567 17.4155C99.6504 17.7006 99.9965 18.2915 99.9983 18.9067L100.002 60.0952C100.002 60.7956 99.5656 61.3952 98.9477 61.6385L63.3516 78.8393C62.8773 79.067 62.3494 79.0496 61.9081 78.8393L26.2012 61.5881C25.6075 61.3031 25.2614 60.7121 25.2596 60.0969V56.6487H9.92973C9.01066 56.6487 8.26295 55.9049 8.26295 54.989C8.26295 54.0731 9.01066 53.3292 9.92973 53.3292H37.6575C38.5575 53.3066 39.281 52.5714 39.281 51.6694C39.281 50.7674 38.5333 50.0096 37.6142 50.0096H25.2562V46.6258H1.66678C0.747715 46.6258 0 45.8819 0 44.966C0 44.0501 0.747715 43.3063 1.66678 43.3063H29.3946C30.2946 43.2837 31.0181 42.5485 31.0181 41.6465C31.0181 40.7445 30.2704 39.9867 29.3513 39.9867H25.2562V36.5994H9.928C9.00893 36.5994 8.26122 35.8555 8.26122 34.9396C8.26122 34.0237 9.00893 33.2798 9.928 33.2798H37.6558C38.5558 33.2572 39.2793 32.5221 39.2793 31.6201C39.2793 30.718 38.5316 29.9603 37.6125 29.9603H25.2544V18.8998C25.2544 18.1994 25.6906 17.5997 26.3068 17.3564L61.9046 0.164304C62.3788 -0.0633718 62.9067 -0.0459919 63.3481 0.164304H63.3498ZM32.3404 23.3629C31.5131 22.9666 31.1669 21.976 31.565 21.1539C31.9631 20.3301 32.9583 19.986 33.7839 20.3823L62.6281 34.3191L91.474 20.3823C92.3013 19.986 93.2948 20.3319 93.6929 21.1539C94.091 21.9777 93.7448 22.9666 92.9175 23.3629L64.2464 37.2164C64.2793 37.345 64.2966 37.4805 64.2966 37.6196V71.2548C64.2966 72.1707 63.5489 72.9145 62.6298 72.9145C61.7107 72.9145 60.963 72.1707 60.963 71.2548V37.6196C60.963 37.4805 60.9803 37.3467 61.0132 37.2164L32.3439 23.3629H32.3404ZM72.2791 57.5056C70.8028 56.402 70.5016 54.3112 71.6093 52.8408C72.7188 51.3705 74.8183 51.0716 76.2687 52.1752L79.1557 54.3268L84.7618 35.5323C85.2828 33.7647 87.1469 32.7532 88.9227 33.2729C90.6986 33.7925 91.7146 35.647 91.1936 37.4145L84.2495 60.813C84.1353 61.1849 83.9622 61.5429 83.7112 61.8714C82.6018 63.3417 80.5023 63.6407 79.0242 62.537L72.2791 57.5056Z" fill="#2949CE"/>
</svg>
